<?xml version="1.0" encoding="UTF-8"?>
<mxfile host="app.diagrams.net" modified="2023-03-27T15:08:52.124Z" agent="Mozilla/5.0 (Windows NT 10.0; Win64; x64) AppleWebKit/537.36 (KHTML, like Gecko) Chrome/111.0.0.0 Safari/537.36" etag="F_PYMBE-TpVGTInCnmJ9" version="21.1.1" type="google">
  <diagram name="Page-1" id="arffy4-NJhMH04xEkonC">
    <mxGraphModel dx="1803" dy="727" grid="1" gridSize="10" guides="1" tooltips="1" connect="1" arrows="1" fold="1" page="1" pageScale="1" pageWidth="850" pageHeight="1100" math="0" shadow="0">
      <root>
        <mxCell id="0" />
        <mxCell id="1" parent="0" />
        <mxCell id="kt7wNeE3NJfRRkz3Z5S9-1" value="" style="whiteSpace=wrap;html=1;aspect=fixed;" parent="1" vertex="1">
          <mxGeometry x="142" y="240" width="410" height="410" as="geometry" />
        </mxCell>
        <mxCell id="kt7wNeE3NJfRRkz3Z5S9-2" style="rounded=0;orthogonalLoop=1;jettySize=auto;html=1;entryX=0;entryY=0.5;entryDx=0;entryDy=0;endArrow=none;endFill=0;" parent="1" source="kt7wNeE3NJfRRkz3Z5S9-3" target="kt7wNeE3NJfRRkz3Z5S9-4" edge="1">
          <mxGeometry relative="1" as="geometry">
            <mxPoint x="267" y="330" as="targetPoint" />
          </mxGeometry>
        </mxCell>
        <mxCell id="kt7wNeE3NJfRRkz3Z5S9-3" value="Admin/ Employee" style="shape=umlActor;verticalLabelPosition=bottom;verticalAlign=top;html=1;" parent="1" vertex="1">
          <mxGeometry x="70" y="430" width="30" height="60" as="geometry" />
        </mxCell>
        <mxCell id="kt7wNeE3NJfRRkz3Z5S9-4" value="View list student" style="ellipse;whiteSpace=wrap;html=1;" parent="1" vertex="1">
          <mxGeometry x="277" y="295" width="140" height="70" as="geometry" />
        </mxCell>
        <mxCell id="kt7wNeE3NJfRRkz3Z5S9-5" value="" style="group" parent="1" connectable="0" vertex="1">
          <mxGeometry x="207" y="420" width="210" height="80" as="geometry" />
        </mxCell>
        <mxCell id="kt7wNeE3NJfRRkz3Z5S9-6" value="Login" style="ellipse;whiteSpace=wrap;html=1;strokeColor=#000000;" parent="kt7wNeE3NJfRRkz3Z5S9-5" vertex="1">
          <mxGeometry x="70" y="10" width="140" height="70" as="geometry" />
        </mxCell>
        <mxCell id="kt7wNeE3NJfRRkz3Z5S9-7" value="&amp;lt;&amp;lt;include&amp;gt;&amp;gt;" style="text;html=1;align=center;verticalAlign=middle;resizable=0;points=[];autosize=1;" parent="1" vertex="1">
          <mxGeometry x="347" y="390" width="80" height="20" as="geometry" />
        </mxCell>
        <mxCell id="kt7wNeE3NJfRRkz3Z5S9-8" value="Delete student" style="ellipse;whiteSpace=wrap;html=1;strokeColor=#000000;" parent="1" vertex="1">
          <mxGeometry x="277" y="570" width="140" height="70" as="geometry" />
        </mxCell>
        <mxCell id="kt7wNeE3NJfRRkz3Z5S9-9" value="&lt;font style=&quot;font-size: 24px;&quot;&gt;Car Parking&lt;/font&gt;" style="text;html=1;strokeColor=none;fillColor=none;align=center;verticalAlign=middle;whiteSpace=wrap;rounded=0;" parent="1" vertex="1">
          <mxGeometry x="277" y="246" width="140" height="20" as="geometry" />
        </mxCell>
        <mxCell id="kt7wNeE3NJfRRkz3Z5S9-10" value="" style="endArrow=open;dashed=1;endFill=0;endSize=12;html=1;exitX=0.5;exitY=1;exitDx=0;exitDy=0;entryX=0.5;entryY=0;entryDx=0;entryDy=0;" parent="1" source="kt7wNeE3NJfRRkz3Z5S9-4" target="kt7wNeE3NJfRRkz3Z5S9-6" edge="1">
          <mxGeometry width="160" relative="1" as="geometry">
            <mxPoint x="202" y="440" as="sourcePoint" />
            <mxPoint x="272" y="470" as="targetPoint" />
          </mxGeometry>
        </mxCell>
        <mxCell id="kt7wNeE3NJfRRkz3Z5S9-11" style="rounded=0;orthogonalLoop=1;jettySize=auto;html=1;entryX=0;entryY=0.5;entryDx=0;entryDy=0;endArrow=none;endFill=0;" parent="1" target="kt7wNeE3NJfRRkz3Z5S9-6" edge="1">
          <mxGeometry relative="1" as="geometry">
            <mxPoint x="287" y="340" as="targetPoint" />
            <mxPoint x="107" y="465" as="sourcePoint" />
          </mxGeometry>
        </mxCell>
        <mxCell id="kt7wNeE3NJfRRkz3Z5S9-12" style="rounded=0;orthogonalLoop=1;jettySize=auto;html=1;endArrow=none;endFill=0;entryX=0;entryY=0.5;entryDx=0;entryDy=0;exitX=1.145;exitY=0.915;exitDx=0;exitDy=0;exitPerimeter=0;" parent="1" source="kt7wNeE3NJfRRkz3Z5S9-3" target="kt7wNeE3NJfRRkz3Z5S9-8" edge="1">
          <mxGeometry relative="1" as="geometry">
            <mxPoint x="287" y="475" as="targetPoint" />
            <mxPoint x="157" y="490" as="sourcePoint" />
          </mxGeometry>
        </mxCell>
      </root>
    </mxGraphModel>
  </diagram>
</mxfile>
